<?xml version="1.0" standalone="no"?>
<!DOCTYPE svg PUBLIC "-//W3C//DTD SVG 20010904//EN"
 "http://www.w3.org/TR/2001/REC-SVG-20010904/DTD/svg10.dtd">
<svg version="1.0" xmlns="http://www.w3.org/2000/svg"
 width="260.000000pt" height="260.000000pt" viewBox="0 0 260.000000 260.000000"
 preserveAspectRatio="xMidYMid meet">
<metadata>
Created by potrace 1.11, written by Peter Selinger 2001-2013
</metadata>
<g transform="translate(0.000000,260.000000) scale(0.100000,-0.100000)"
fill="#000000" stroke="none">
<path d="M0 1300 l0 -1300 1300 0 1300 0 0 1300 0 1300 -1300 0 -1300 0 0
-1300z m420 313 l0 -218 23 40 c41 72 130 113 221 100 171 -22 256 -148 256
-380 -1 -155 -30 -246 -102 -316 -69 -66 -197 -89 -283 -50 -39 18 -103 80
-107 104 -1 7 -4 -15 -7 -48 l-6 -60 -75 0 -75 0 -3 523 -2 522 80 0 80 0 0
-217z m1784 -107 c28 -13 67 -37 86 -54 l35 -31 -50 -44 -50 -45 -30 26 c-16
14 -44 31 -62 39 -41 16 -130 17 -163 0 -54 -27 -63 -112 -15 -143 13 -8 70
-23 128 -34 187 -33 250 -88 250 -215 0 -99 -43 -163 -138 -207 -42 -19 -67
-23 -155 -23 -114 0 -168 16 -233 71 -62 52 -63 58 -10 107 l48 45 42 -38 c99
-92 277 -87 298 8 14 65 -27 104 -120 117 -183 24 -253 64 -281 163 -39 132
37 252 179 282 68 15 184 3 241 -24z m-997 -151 c29 -88 70 -216 90 -285 20
-69 39 -129 43 -133 4 -4 17 27 29 70 12 43 54 176 94 296 l72 217 72 0 c40 0
73 -2 73 -4 0 -3 -151 -446 -232 -678 l-20 -58 -88 0 -88 0 -26 73 c-31 88
-226 660 -226 665 0 1 34 2 77 0 l76 -3 54 -160z"/>
<path d="M492 1384 c-68 -35 -72 -48 -72 -231 l0 -165 33 -33 c67 -67 179 -71
248 -8 49 44 59 81 59 213 0 90 -3 112 -22 150 -33 64 -66 84 -146 88 -48 2
-76 -2 -100 -14z"/>
</g>
</svg>
